<svg width="32" height="32" viewBox="0 0 32 32" fill="none" xmlns="http://www.w3.org/2000/svg">
<path d="M8.66634 26.6693C6.64412 26.6693 4.91634 25.9693 3.48301 24.5693C2.04967 23.1693 1.33301 21.4582 1.33301 19.4359C1.33301 17.7026 1.85523 16.1582 2.89967 14.8026C3.94412 13.447 5.31079 12.5804 6.99967 12.2026C7.55523 10.1582 8.66634 8.5026 10.333 7.23594C11.9997 5.96927 13.8886 5.33594 15.9997 5.33594C18.5997 5.33594 20.8052 6.24149 22.6163 8.0526C24.4275 9.86372 25.333 12.0693 25.333 14.6693C26.8663 14.847 28.1386 15.5082 29.1497 16.6526C30.1608 17.797 30.6663 19.1359 30.6663 20.6693C30.6663 22.3359 30.083 23.7526 28.9163 24.9193C27.7497 26.0859 26.333 26.6693 24.6663 26.6693H8.66634Z" fill="#3B4048"/>
</svg>
