<svg width="32" height="32" viewBox="0 0 32 32" fill="none" xmlns="http://www.w3.org/2000/svg">
<path d="M5.33301 28.0026V15.5026L2.93301 17.3359L1.33301 15.2026L5.33301 12.1359V8.0026H7.99967V10.1026L15.9997 4.0026L30.6663 15.2026L29.0663 17.3026L26.6663 15.5026V28.0026H17.333V20.0026H14.6663V28.0026H5.33301ZM5.33301 6.66927C5.33301 5.55816 5.7219 4.61372 6.49967 3.83594C7.27745 3.05816 8.2219 2.66927 9.33301 2.66927C9.71079 2.66927 10.0275 2.54149 10.283 2.28594C10.5386 2.03038 10.6663 1.71372 10.6663 1.33594H13.333C13.333 2.44705 12.9441 3.39149 12.1663 4.16927C11.3886 4.94705 10.4441 5.33594 9.33301 5.33594C8.95523 5.33594 8.63856 5.46372 8.38301 5.71927C8.12745 5.97483 7.99967 6.29149 7.99967 6.66927H5.33301Z" fill="#3B4048"/>
</svg>
