<svg width="32" height="32" viewBox="0 0 32 32" fill="none" xmlns="http://www.w3.org/2000/svg">
<g clip-path="url(#clip0_2060_10113)">
<path d="M15.0003 29.2974C13.267 29.1641 11.6503 28.7307 10.1503 27.9974C8.65033 27.2641 7.34477 26.3029 6.23366 25.1141C5.12255 23.9252 4.25033 22.5474 3.61699 20.9807C2.98366 19.4141 2.66699 17.753 2.66699 15.9974C2.66699 14.153 3.01699 12.4196 3.71699 10.7974C4.41699 9.17517 5.36699 7.76406 6.56699 6.56406C7.76699 5.36406 9.1781 4.41406 10.8003 3.71406C12.4225 3.01406 14.1559 2.66406 16.0003 2.66406C17.8448 2.66406 19.5781 3.01406 21.2003 3.71406C22.8225 4.41406 24.2337 5.36406 25.4337 6.56406C26.6337 7.76406 27.5837 9.17517 28.2837 10.7974C28.9837 12.4196 29.3337 14.153 29.3337 15.9974V16.6307C28.9559 16.3863 28.517 16.1474 28.017 15.9141C27.517 15.6807 27.0559 15.4863 26.6337 15.3307C26.4559 12.5307 25.3503 10.1641 23.317 8.23073C21.2837 6.2974 18.8448 5.33073 16.0003 5.33073C14.7559 5.33073 13.5837 5.53073 12.4837 5.93073C11.3837 6.33073 10.3781 6.88628 9.46699 7.5974L17.6337 15.7641C17.2114 15.9418 16.8059 16.1474 16.417 16.3807C16.0281 16.6141 15.6448 16.8641 15.267 17.1307L7.60033 9.46406C6.88921 10.3752 6.33366 11.3807 5.93366 12.4807C5.53366 13.5807 5.33366 14.753 5.33366 15.9974C5.33366 18.1974 5.9281 20.1696 7.11699 21.9141C8.30588 23.6585 9.84477 24.9418 11.7337 25.7641C12.1337 26.3863 12.6337 27.0196 13.2337 27.6641C13.8337 28.3085 14.4225 28.8529 15.0003 29.2974ZM22.667 26.6641C23.9781 26.6641 25.1948 26.3641 26.317 25.7641C27.4392 25.1641 28.3337 24.3529 29.0003 23.3307C28.3337 22.3085 27.4392 21.4974 26.317 20.8974C25.1948 20.2974 23.9781 19.9974 22.667 19.9974C21.3559 19.9974 20.1392 20.2974 19.017 20.8974C17.8948 21.4974 17.0003 22.3085 16.3337 23.3307C17.0003 24.3529 17.8948 25.1641 19.017 25.7641C20.1392 26.3641 21.3559 26.6641 22.667 26.6641ZM22.667 29.3307C20.5337 29.3307 18.6281 28.7696 16.9503 27.6474C15.2725 26.5252 14.067 25.0863 13.3337 23.3307C14.067 21.5752 15.2725 20.1363 16.9503 19.0141C18.6281 17.8918 20.5337 17.3307 22.667 17.3307C24.8003 17.3307 26.7059 17.8918 28.3837 19.0141C30.0614 20.1363 31.267 21.5752 32.0003 23.3307C31.267 25.0863 30.0614 26.5252 28.3837 27.6474C26.7059 28.7696 24.8003 29.3307 22.667 29.3307ZM22.667 25.3307C22.1114 25.3307 21.6392 25.1363 21.2503 24.7474C20.8614 24.3585 20.667 23.8863 20.667 23.3307C20.667 22.7752 20.8614 22.3029 21.2503 21.9141C21.6392 21.5252 22.1114 21.3307 22.667 21.3307C23.2225 21.3307 23.6948 21.5252 24.0837 21.9141C24.4725 22.3029 24.667 22.7752 24.667 23.3307C24.667 23.8863 24.4725 24.3585 24.0837 24.7474C23.6948 25.1363 23.2225 25.3307 22.667 25.3307Z" fill="#3B4048"/>
</g>
<defs>
<clipPath id="clip0_2060_10113">
<rect width="32" height="32" fill="white"/>
</clipPath>
</defs>
</svg>
