<svg width="32" height="32" viewBox="0 0 32 32" fill="none" xmlns="http://www.w3.org/2000/svg">
<path d="M15.9997 28.6667C14.2441 28.6667 12.5997 28.3333 11.0663 27.6667C9.53301 27 8.19412 26.0944 7.04967 24.95C5.90523 23.8056 4.99967 22.4667 4.33301 20.9333C3.66634 19.4 3.33301 17.7556 3.33301 16C3.33301 14.2444 3.66634 12.6 4.33301 11.0667C4.99967 9.53333 5.90523 8.19444 7.04967 7.05C8.19412 5.90556 9.53301 5 11.0663 4.33333C12.5997 3.66667 14.2441 3.33333 15.9997 3.33333V0L21.333 5.33333L15.9997 10.6667V7.33333C13.5997 7.33333 11.5552 8.17778 9.86634 9.86667C8.17745 11.5556 7.33301 13.6 7.33301 16C7.33301 17.4667 7.6719 18.8278 8.34967 20.0833C9.02745 21.3389 9.93301 22.3556 11.0663 23.1333C11.4219 22.5111 11.9497 21.9833 12.6497 21.55C13.3497 21.1167 14.1552 20.8444 15.0663 20.7333C14.9997 20.2667 14.9108 19.8 14.7997 19.3333C14.6886 18.8667 14.5552 18.4333 14.3997 18.0333C14.1552 18.2333 13.8886 18.3889 13.5997 18.5C13.3108 18.6111 12.9997 18.6667 12.6663 18.6667C11.933 18.6667 11.3052 18.4056 10.783 17.8833C10.2608 17.3611 9.99967 16.7333 9.99967 16V14.6667C9.99967 14.2889 9.93856 13.9333 9.81634 13.6C9.69412 13.2667 9.53301 12.9556 9.33301 12.6667C10.4441 12.6444 11.433 12.7444 12.2997 12.9667C13.0552 13.1667 13.7441 13.4944 14.3663 13.95C14.9886 14.4056 15.3108 15.0889 15.333 16C15.333 16.2 15.3163 16.3833 15.283 16.55C15.2497 16.7167 15.1886 16.8889 15.0997 17.0667C14.8108 16.8444 14.5219 16.6444 14.233 16.4667C13.9441 16.2889 13.6441 16.1333 13.333 16C13.7108 16.2889 14.1441 16.7333 14.633 17.3333C15.1219 17.9333 15.5775 18.6444 15.9997 19.4667C16.4441 18.3778 16.9997 17.3056 17.6663 16.25C18.333 15.1944 19.1108 14.2222 19.9997 13.3333C19.4886 13.6889 18.9997 14.0667 18.533 14.4667C18.0663 14.8667 17.6108 15.2889 17.1663 15.7333C17.0108 15.4889 16.8886 15.2167 16.7997 14.9167C16.7108 14.6167 16.6663 14.3111 16.6663 14C16.6663 13.0667 16.9886 12.2778 17.633 11.6333C18.2775 10.9889 19.0663 10.6667 19.9997 10.6667H21.333C21.8441 10.6667 22.2663 10.6 22.5997 10.4667C22.933 10.3333 23.2108 10.1778 23.433 10C23.6775 9.8 23.8663 9.57778 23.9997 9.33333C24.0886 10.8222 24.0108 12.1556 23.7663 13.3333C23.5663 14.3333 23.1886 15.25 22.633 16.0833C22.0775 16.9167 21.1997 17.3333 19.9997 17.3333C19.6663 17.3333 19.3497 17.2889 19.0497 17.2C18.7497 17.1111 18.4775 16.9889 18.233 16.8333C18.0775 17.2556 17.8997 17.8167 17.6997 18.5167C17.4997 19.2167 17.3441 19.9667 17.233 20.7667C18.0775 20.9222 18.8219 21.2111 19.4663 21.6333C20.1108 22.0556 20.5997 22.5556 20.933 23.1333C22.0663 22.3556 22.9719 21.3444 23.6497 20.1C24.3275 18.8556 24.6663 17.4889 24.6663 16H28.6663C28.6663 17.7556 28.333 19.4 27.6663 20.9333C26.9997 22.4667 26.0941 23.8056 24.9497 24.95C23.8052 26.0944 22.4663 27 20.933 27.6667C19.3997 28.3333 17.7552 28.6667 15.9997 28.6667Z" fill="#3B4048"/>
</svg>
